<svg width="32" height="32" viewBox="0 0 32 32" fill="none" xmlns="http://www.w3.org/2000/svg">
  <defs>
    <linearGradient id="grad" x1="0%" y1="0%" x2="100%" y2="100%">
      <stop offset="0%" style="stop-color:#A855F7;stop-opacity:1" />
      <stop offset="100%" style="stop-color:#EC4899;stop-opacity:1" />
    </linearGradient>
  </defs>

  <!-- Graduation Cap -->
  <!-- Base of cap -->
  <path d="M16 8L4 13L16 18L28 13L16 8Z" fill="url(#grad)"/>

  <!-- Top of cap -->
  <path d="M16 8L16 6L18 6L18 8L16 8Z" fill="url(#grad)"/>

  <!-- Tassel -->
  <circle cx="18" cy="6" r="1" fill="url(#grad)"/>

  <!-- Left side of mortarboard -->
  <path d="M4 13L4 18C4 20 8 22 16 22C24 22 28 20 28 18L28 13L16 18L4 13Z" fill="url(#grad)" opacity="0.8"/>

  <!-- Book pages underneath -->
  <rect x="10" y="20" width="12" height="8" rx="1" fill="url(#grad)" opacity="0.6"/>
  <line x1="12" y1="23" x2="20" y2="23" stroke="white" stroke-width="0.5" opacity="0.5"/>
  <line x1="12" y1="25" x2="20" y2="25" stroke="white" stroke-width="0.5" opacity="0.5"/>
</svg>
